<?xml version="1.0" encoding="iso-8859-1"?>
<!-- Generator: Adobe Illustrator 19.0.0, SVG Export Plug-In . SVG Version: 6.00 Build 0)  -->
<svg version="1.1" id="Capa_1" xmlns="http://www.w3.org/2000/svg" xmlns:xlink="http://www.w3.org/1999/xlink" x="0px" y="0px"
	 viewBox="0 0 511.766 511.766" style="enable-background:new 0 0 511.766 511.766;" xml:space="preserve">
<polygon style="fill:#656D78;" points="427.805,235.892 83.962,235.892 75.966,219.9 83.962,203.906 427.805,203.906 435.801,219.9 
	"/>
<g style="opacity:0.2;">
	<rect x="79.323" y="203.903" width="352.31" height="7.997"/>
</g>
<g style="opacity:0.2;">
	<rect x="79.323" y="227.893" width="352.31" height="7.996"/>
</g>
<path style="fill:#F6BB42;" d="M411.812,3.998c-13.252,0-23.989,10.737-23.989,23.989v7.997h47.979v-7.997
	C435.801,14.736,425.064,3.998,411.812,3.998z"/>
<g style="opacity:0.2;">
	<path d="M411.812,3.998c-13.252,0-23.989,10.737-23.989,23.989v7.997c0-13.252,10.737-23.989,23.989-23.989
		s23.989,10.737,23.989,23.989v-7.997C435.801,14.736,425.064,3.998,411.812,3.998z"/>
</g>
<path style="fill:#FFCE54;" d="M155.929,3.998h255.882c-13.275,0-23.989,10.714-23.989,23.989V219.9v15.992H131.94V219.9V27.987
	C131.94,14.712,142.654,3.998,155.929,3.998z"/>
<path id="SVGCleanerId_0" style="fill:#82878E;" d="M123.944,275.873c-39.982,0-44.62,7.997-44.62,7.997l-2.718-0.398l1.203-8.074
	c3.358-21.756,24.145-39.506,46.135-39.506h7.996h255.882c21.99,0,42.777,17.75,46.135,39.506l1.203,8.074l-2.718,0.398
	c0,0-12.635-7.997-52.616-7.997s-71.966,23.989-123.943,23.989C203.907,299.862,163.925,275.873,123.944,275.873z"/>
<g>
	<path id="SVGCleanerId_0_1_" style="fill:#82878E;" d="M123.944,275.873c-39.982,0-44.62,7.997-44.62,7.997l-2.718-0.398
		l1.203-8.074c3.358-21.756,24.145-39.506,46.135-39.506h7.996h255.882c21.99,0,42.777,17.75,46.135,39.506l1.203,8.074
		l-2.718,0.398c0,0-12.635-7.997-52.616-7.997s-71.966,23.989-123.943,23.989C203.907,299.862,163.925,275.873,123.944,275.873z"/>
</g>
<g style="opacity:0.2;">
	<path style="fill:#FFFFFF;" d="M93.801,275.398c3.358-21.756,24.146-39.506,46.135-39.506h-7.997h-7.996
		c-21.99,0-42.777,17.75-46.135,39.506l-1.203,8.074l2.718,0.398c0,0,1.991-3.312,14.063-5.678L93.801,275.398z"/>
</g>
<g style="opacity:0.2;">
	<path d="M418.285,275.398c-3.357-21.756-24.146-39.506-46.135-39.506h7.996h7.996c21.99,0,42.777,17.75,46.135,39.506l1.203,8.074
		l-2.718,0.398c0,0-1.991-3.312-14.063-5.678L418.285,275.398z"/>
</g>
<path style="fill:#434A54;" d="M86.281,483.779h339.203c19.43,0,33.509-13.837,34.227-31.985h0.078v23.989
	c-0.796,18.147-14.875,31.985-34.305,31.985H86.281c-19.428,0-33.508-13.838-34.305-31.985v-23.99h0.078
	C52.773,469.942,66.853,483.779,86.281,483.779z"/>
<path style="fill:#656D78;" d="M327.85,363.833c0-4.396-5.356-7.996-11.994-7.996s-11.994,3.6-11.994,7.996
	s5.356,7.997,11.994,7.997S327.85,368.23,327.85,363.833z M335.846,339.844c6.639,0,11.995-3.6,11.995-7.996
	s-5.356-7.996-11.995-7.996c-6.637,0-11.994,3.6-11.994,7.996S329.209,339.844,335.846,339.844z M335.846,403.815
	c6.639,0,11.995-3.6,11.995-7.996s-5.356-7.996-11.995-7.996c-6.637,0-11.994,3.6-11.994,7.996S329.209,403.815,335.846,403.815z
	 M367.832,363.833c0-4.396-5.357-7.996-11.995-7.996s-11.994,3.6-11.994,7.996s5.356,7.997,11.994,7.997
	S367.832,368.23,367.832,363.833z M375.828,387.822c-6.638,0-11.994,3.6-11.994,7.996s5.356,7.996,11.994,7.996
	s11.994-3.6,11.994-7.996S382.466,387.822,375.828,387.822z M375.828,339.844c6.638,0,11.994-3.6,11.994-7.996
	s-5.356-7.996-11.994-7.996s-11.994,3.6-11.994,7.996S369.191,339.844,375.828,339.844z M383.824,363.833
	c0,4.396,5.357,7.997,11.994,7.997c6.638,0,11.995-3.601,11.995-7.997s-5.357-7.996-11.995-7.996
	C389.182,355.837,383.824,359.437,383.824,363.833z M207.905,363.833c0-4.396-5.357-7.996-11.995-7.996s-11.994,3.6-11.994,7.996
	s5.356,7.997,11.994,7.997S207.905,368.23,207.905,363.833z M227.896,395.819c0-4.396-5.356-7.996-11.994-7.996
	s-11.995,3.6-11.995,7.996s5.357,7.996,11.995,7.996S227.896,400.215,227.896,395.819z M215.902,339.844
	c6.638,0,11.994-3.6,11.994-7.996s-5.356-7.996-11.994-7.996s-11.995,3.6-11.995,7.996S209.264,339.844,215.902,339.844z
	 M247.887,363.833c0-4.396-5.357-7.996-11.995-7.996s-11.995,3.6-11.995,7.996s5.357,7.997,11.995,7.997
	C242.53,371.83,247.887,368.23,247.887,363.833z M243.889,331.848c0,4.396,5.356,7.996,11.994,7.996s11.994-3.6,11.994-7.996
	s-5.356-7.996-11.994-7.996C249.246,323.852,243.889,327.451,243.889,331.848z M267.877,395.819c0-4.396-5.356-7.996-11.994-7.996
	c-6.637,0-11.994,3.6-11.994,7.996s5.356,7.996,11.994,7.996C262.521,403.815,267.877,400.215,267.877,395.819z M287.868,363.833
	c0-4.396-5.356-7.996-11.994-7.996s-11.995,3.6-11.995,7.996s5.357,7.997,11.995,7.997S287.868,368.23,287.868,363.833z
	 M307.86,331.848c0-4.396-5.357-7.996-11.995-7.996s-11.994,3.6-11.994,7.996s5.356,7.996,11.994,7.996
	S307.86,336.244,307.86,331.848z M295.864,387.822c-6.638,0-11.994,3.6-11.994,7.996s5.356,7.996,11.994,7.996
	s11.995-3.6,11.995-7.996S302.502,387.822,295.864,387.822z M86.281,483.779c-19.428,0-33.508-13.837-34.227-31.985
	c-0.156-2.476,0-4.959,0.398-7.52l24.153-160.802l2.718,0.398c0,0,4.638-7.997,44.62-7.997c39.981,0,79.963,23.989,131.939,23.989
	c51.977,0,83.962-23.989,123.943-23.989s52.616,7.997,52.616,7.997l2.718-0.398l24.153,160.802c0.397,2.561,0.554,5.044,0.397,7.52
	c-0.718,18.148-14.797,31.985-34.227,31.985H86.281z M115.947,371.83c6.638,0,11.995-3.601,11.995-7.997s-5.357-7.996-11.995-7.996
	c-6.637,0-11.995,3.6-11.995,7.996S109.31,371.83,115.947,371.83z M147.933,395.819c0-4.396-5.357-7.996-11.995-7.996
	s-11.994,3.6-11.994,7.996s5.356,7.996,11.994,7.996S147.933,400.215,147.933,395.819z M135.938,339.844
	c6.638,0,11.995-3.6,11.995-7.996s-5.357-7.996-11.995-7.996s-11.994,3.6-11.994,7.996S129.3,339.844,135.938,339.844z
	 M155.929,355.837c-6.638,0-11.995,3.6-11.995,7.996s5.357,7.997,11.995,7.997s11.994-3.601,11.994-7.997
	S162.567,355.837,155.929,355.837z M175.92,387.822c-6.638,0-11.995,3.6-11.995,7.996s5.357,7.996,11.995,7.996
	s11.995-3.6,11.995-7.996S182.558,387.822,175.92,387.822z M163.925,331.848c0,4.396,5.357,7.996,11.995,7.996
	s11.995-3.6,11.995-7.996s-5.357-7.996-11.995-7.996S163.925,327.451,163.925,331.848z M335.846,419.808H175.92
	c-6.638,0-11.995,3.6-11.995,7.996s5.357,7.997,11.995,7.997h159.926c6.639,0,11.995-3.601,11.995-7.997
	S342.485,419.808,335.846,419.808z"/>
<g style="opacity:0.2;">
	<path d="M375.828,335.846c6.638,0,11.994,3.6,11.994,7.996s-5.356,7.997-11.994,7.997s-11.994-3.601-11.994-7.997
		S369.191,335.846,375.828,335.846z"/>
	<path d="M395.819,367.831c6.638,0,11.995,3.601,11.995,7.997s-5.357,7.996-11.995,7.996c-6.637,0-11.994-3.6-11.994-7.996
		S389.182,367.831,395.819,367.831z"/>
	<path d="M375.828,399.817c6.638,0,11.994,3.601,11.994,7.996c0,4.396-5.356,7.997-11.994,7.997s-11.994-3.601-11.994-7.997
		C363.834,403.417,369.191,399.817,375.828,399.817z"/>
	<path d="M355.837,367.831c6.638,0,11.995,3.601,11.995,7.997s-5.357,7.996-11.995,7.996s-11.994-3.6-11.994-7.996
		S349.199,367.831,355.837,367.831z"/>
	<path d="M335.846,335.846c6.639,0,11.995,3.6,11.995,7.996s-5.356,7.997-11.995,7.997c-6.637,0-11.994-3.601-11.994-7.997
		S329.209,335.846,335.846,335.846z"/>
	<path d="M295.864,335.846c6.638,0,11.995,3.6,11.995,7.996s-5.357,7.997-11.995,7.997s-11.994-3.601-11.994-7.997
		S289.227,335.846,295.864,335.846z"/>
	<path d="M315.856,367.831c6.638,0,11.994,3.601,11.994,7.997s-5.356,7.996-11.994,7.996s-11.994-3.6-11.994-7.996
		S309.218,367.831,315.856,367.831z"/>
	<path d="M347.841,407.813c0,4.396-5.356,7.997-11.995,7.997c-6.637,0-11.994-3.601-11.994-7.997s5.357-7.996,11.994-7.996
		C342.485,399.817,347.841,403.417,347.841,407.813z"/>
	<path d="M335.846,431.802c6.639,0,11.995,3.601,11.995,7.997s-5.356,7.996-11.995,7.996H175.92c-6.638,0-11.995-3.6-11.995-7.996
		s5.357-7.997,11.995-7.997H335.846z"/>
	<path d="M295.864,399.817c6.638,0,11.995,3.601,11.995,7.996c0,4.396-5.357,7.997-11.995,7.997s-11.994-3.601-11.994-7.997
		S289.227,399.817,295.864,399.817z"/>
	<path d="M255.883,399.817c6.638,0,11.994,3.601,11.994,7.996c0,4.396-5.356,7.997-11.994,7.997c-6.637,0-11.994-3.601-11.994-7.997
		C243.889,403.417,249.246,399.817,255.883,399.817z"/>
	<path d="M275.874,367.831c6.638,0,11.994,3.601,11.994,7.997s-5.356,7.996-11.994,7.996s-11.995-3.6-11.995-7.996
		S269.237,367.831,275.874,367.831z"/>
	<path d="M255.883,335.846c6.638,0,11.994,3.6,11.994,7.996s-5.356,7.997-11.994,7.997c-6.637,0-11.994-3.601-11.994-7.997
		S249.246,335.846,255.883,335.846z"/>
	<path d="M235.893,367.831c6.637,0,11.995,3.601,11.995,7.997s-5.357,7.996-11.995,7.996s-11.995-3.6-11.995-7.996
		S229.255,367.831,235.893,367.831z"/>
	<path d="M195.911,367.831c6.638,0,11.995,3.601,11.995,7.997s-5.357,7.996-11.995,7.996s-11.994-3.6-11.994-7.996
		S189.273,367.831,195.911,367.831z"/>
	<path d="M215.902,335.846c6.638,0,11.994,3.6,11.994,7.996s-5.356,7.997-11.994,7.997s-11.995-3.601-11.995-7.997
		S209.264,335.846,215.902,335.846z"/>
	<path d="M175.92,335.846c6.638,0,11.995,3.6,11.995,7.996s-5.357,7.997-11.995,7.997s-11.995-3.601-11.995-7.997
		S169.282,335.846,175.92,335.846z"/>
	<path d="M155.929,367.831c6.638,0,11.994,3.601,11.994,7.997s-5.356,7.996-11.994,7.996s-11.995-3.6-11.995-7.996
		S149.292,367.831,155.929,367.831z"/>
	<path d="M135.938,335.846c6.638,0,11.995,3.6,11.995,7.996s-5.357,7.997-11.995,7.997s-11.994-3.601-11.994-7.997
		S129.3,335.846,135.938,335.846z"/>
	<path d="M115.947,367.831c6.638,0,11.995,3.601,11.995,7.997s-5.357,7.996-11.995,7.996c-6.637,0-11.995-3.6-11.995-7.996
		S109.31,367.831,115.947,367.831z"/>
	<path d="M135.938,399.817c6.638,0,11.995,3.601,11.995,7.996c0,4.396-5.357,7.997-11.995,7.997s-11.994-3.601-11.994-7.997
		C123.944,403.417,129.3,399.817,135.938,399.817z"/>
	<path d="M187.915,407.813c0,4.396-5.357,7.997-11.995,7.997s-11.995-3.601-11.995-7.997s5.357-7.996,11.995-7.996
		S187.915,403.417,187.915,407.813z"/>
	<path d="M215.902,399.817c6.638,0,11.994,3.601,11.994,7.996c0,4.396-5.356,7.997-11.994,7.997s-11.995-3.601-11.995-7.997
		S209.264,399.817,215.902,399.817z"/>
</g>
<g>
	<path style="fill:#E6E9ED;" d="M375.828,323.852c6.638,0,11.994,3.6,11.994,7.996s-5.356,7.996-11.994,7.996
		s-11.994-3.6-11.994-7.996S369.191,323.852,375.828,323.852z"/>
	<path style="fill:#E6E9ED;" d="M395.819,355.837c6.638,0,11.995,3.6,11.995,7.996s-5.357,7.997-11.995,7.997
		c-6.637,0-11.994-3.601-11.994-7.997S389.182,355.837,395.819,355.837z"/>
	<path style="fill:#E6E9ED;" d="M375.828,387.822c6.638,0,11.994,3.6,11.994,7.996s-5.356,7.996-11.994,7.996
		s-11.994-3.6-11.994-7.996S369.191,387.822,375.828,387.822z"/>
	<path style="fill:#E6E9ED;" d="M355.837,355.837c6.638,0,11.995,3.6,11.995,7.996s-5.357,7.997-11.995,7.997
		s-11.994-3.601-11.994-7.997S349.199,355.837,355.837,355.837z"/>
	<path style="fill:#E6E9ED;" d="M335.846,323.852c6.639,0,11.995,3.6,11.995,7.996s-5.356,7.996-11.995,7.996
		c-6.637,0-11.994-3.6-11.994-7.996S329.209,323.852,335.846,323.852z"/>
	<path style="fill:#E6E9ED;" d="M295.864,323.852c6.638,0,11.995,3.6,11.995,7.996s-5.357,7.996-11.995,7.996
		s-11.994-3.6-11.994-7.996S289.227,323.852,295.864,323.852z"/>
	<path style="fill:#E6E9ED;" d="M315.856,355.837c6.638,0,11.994,3.6,11.994,7.996s-5.356,7.997-11.994,7.997
		s-11.994-3.601-11.994-7.997S309.218,355.837,315.856,355.837z"/>
	<path style="fill:#E6E9ED;" d="M347.841,395.819c0,4.396-5.356,7.996-11.995,7.996c-6.637,0-11.994-3.6-11.994-7.996
		s5.357-7.996,11.994-7.996C342.485,387.822,347.841,391.422,347.841,395.819z"/>
	<path style="fill:#E6E9ED;" d="M335.846,419.808c6.639,0,11.995,3.6,11.995,7.996s-5.356,7.997-11.995,7.997H175.92
		c-6.638,0-11.995-3.601-11.995-7.997s5.357-7.996,11.995-7.996H335.846z"/>
	<path style="fill:#E6E9ED;" d="M295.864,387.822c6.638,0,11.995,3.6,11.995,7.996s-5.357,7.996-11.995,7.996
		s-11.994-3.6-11.994-7.996S289.227,387.822,295.864,387.822z"/>
	<path style="fill:#E6E9ED;" d="M255.883,387.822c6.638,0,11.994,3.6,11.994,7.996s-5.356,7.996-11.994,7.996
		c-6.637,0-11.994-3.6-11.994-7.996S249.246,387.822,255.883,387.822z"/>
	<path style="fill:#E6E9ED;" d="M275.874,355.837c6.638,0,11.994,3.6,11.994,7.996s-5.356,7.997-11.994,7.997
		s-11.995-3.601-11.995-7.997S269.237,355.837,275.874,355.837z"/>
	<path style="fill:#E6E9ED;" d="M255.883,323.852c6.638,0,11.994,3.6,11.994,7.996s-5.356,7.996-11.994,7.996
		c-6.637,0-11.994-3.6-11.994-7.996S249.246,323.852,255.883,323.852z"/>
	<path style="fill:#E6E9ED;" d="M235.893,355.837c6.637,0,11.995,3.6,11.995,7.996s-5.357,7.997-11.995,7.997
		s-11.995-3.601-11.995-7.997S229.255,355.837,235.893,355.837z"/>
	<path style="fill:#E6E9ED;" d="M195.911,355.837c6.638,0,11.995,3.6,11.995,7.996s-5.357,7.997-11.995,7.997
		s-11.994-3.601-11.994-7.997S189.273,355.837,195.911,355.837z"/>
	<path style="fill:#E6E9ED;" d="M215.902,323.852c6.638,0,11.994,3.6,11.994,7.996s-5.356,7.996-11.994,7.996
		s-11.995-3.6-11.995-7.996S209.264,323.852,215.902,323.852z"/>
	<path style="fill:#E6E9ED;" d="M175.92,323.852c6.638,0,11.995,3.6,11.995,7.996s-5.357,7.996-11.995,7.996
		s-11.995-3.6-11.995-7.996S169.282,323.852,175.92,323.852z"/>
	<path style="fill:#E6E9ED;" d="M155.929,355.837c6.638,0,11.994,3.6,11.994,7.996s-5.356,7.997-11.994,7.997
		s-11.995-3.601-11.995-7.997S149.292,355.837,155.929,355.837z"/>
	<path style="fill:#E6E9ED;" d="M135.938,323.852c6.638,0,11.995,3.6,11.995,7.996s-5.357,7.996-11.995,7.996
		s-11.994-3.6-11.994-7.996S129.3,323.852,135.938,323.852z"/>
	<path style="fill:#E6E9ED;" d="M115.947,355.837c6.638,0,11.995,3.6,11.995,7.996s-5.357,7.997-11.995,7.997
		c-6.637,0-11.995-3.601-11.995-7.997S109.31,355.837,115.947,355.837z"/>
	<path style="fill:#E6E9ED;" d="M135.938,387.822c6.638,0,11.995,3.6,11.995,7.996s-5.357,7.996-11.995,7.996
		s-11.994-3.6-11.994-7.996S129.3,387.822,135.938,387.822z"/>
	<path style="fill:#E6E9ED;" d="M187.915,395.819c0,4.396-5.357,7.996-11.995,7.996s-11.995-3.6-11.995-7.996
		s5.357-7.996,11.995-7.996S187.915,391.422,187.915,395.819z"/>
	<path style="fill:#E6E9ED;" d="M215.902,387.822c6.638,0,11.994,3.6,11.994,7.996s-5.356,7.996-11.994,7.996
		s-11.995-3.6-11.995-7.996S209.264,387.822,215.902,387.822z"/>
</g>
<g style="opacity:0.2;">
	<path d="M435.16,291.468l-1.164-7.824l-1.554,0.227c0,0-12.635-7.997-52.616-7.997s-71.966,23.988-123.943,23.988
		c-51.976,0-91.958-23.989-131.939-23.989c-39.982,0-44.62,7.997-44.62,7.997l-1.554-0.227l-1.164,7.824l2.718,0.398
		c0,0,4.638-7.996,44.62-7.996c39.981,0,79.963,23.989,131.939,23.989c51.977,0,83.962-23.989,123.943-23.989
		s52.616,7.996,52.616,7.996L435.16,291.468z"/>
</g>
<g style="opacity:0.2;">
	<path style="fill:#FFFFFF;" d="M129.824,276.084c-1.96-0.109-3.92-0.211-5.88-0.211c1.96,0,3.92,0.102,5.872,0.211
		C129.824,276.084,129.824,276.084,129.824,276.084z"/>
	<path style="fill:#FFFFFF;" d="M68.048,451.793c-0.156-2.476,0-4.959,0.398-7.52l23.708-157.85
		c-11.019,2.342-12.83,5.442-12.83,5.442l-2.718-0.398l1.164-7.824l1.554,0.227l-2.718-0.398L52.453,444.274
		c-0.398,2.561-0.554,5.044-0.398,7.52c0.718,18.148,14.798,31.985,34.227,31.985h15.993
		C82.845,483.779,68.766,469.942,68.048,451.793z"/>
</g>
<g style="opacity:0.2;">
	<path d="M432.443,283.87h0.008c-0.008-0.016-4.669-7.997-44.62-7.997c-0.688,0-1.382,0.055-2.069,0.078
		C421.033,276.694,432.443,283.87,432.443,283.87z"/>
	<path d="M459.321,444.274l-24.153-160.802l-1.336,0.195l0.164-0.023l1.164,7.824l-2.718,0.398c0,0-3.545-2.202-12.65-4.303
		l23.536,156.71c0.398,2.561,0.555,5.044,0.398,7.52c-0.719,18.148-14.798,31.985-34.227,31.985h15.992
		c19.43,0,33.509-13.837,34.227-31.985C459.875,449.318,459.719,446.834,459.321,444.274z"/>
</g>
<g style="opacity:0.2;">
	<rect x="131.943" y="227.893" width="255.88" height="7.996"/>
</g>
<g style="opacity:0.2;">
	<path d="M155.929,11.994H394.03c4.389-4.88,10.683-7.996,17.781-7.996H155.929c-13.275,0-23.989,10.714-23.989,23.989v7.997
		C131.94,22.708,142.654,11.994,155.929,11.994z"/>
</g>
<g style="opacity:0.5;">
	<path style="fill:#FFFFFF;" d="M131.94,35.984v191.912h7.997V27.987c0-4.576,1.343-8.8,3.553-12.439
		C136.587,19.757,131.94,27.284,131.94,35.984z"/>
</g>
<g style="opacity:0.2;">
	<path d="M401.598,6.349c0.133-0.062,0.25-0.148,0.383-0.211C401.848,6.2,401.731,6.286,401.598,6.349z"/>
	<path d="M405.947,4.802c0.273-0.07,0.531-0.195,0.812-0.25C406.479,4.615,406.221,4.732,405.947,4.802z"/>
	<path d="M394.03,11.994h-7.996c-3.818,4.248-6.208,9.816-6.208,15.993v199.909h7.996V27.987
		C387.822,21.81,390.212,16.242,394.03,11.994L394.03,11.994z"/>
	<path d="M397.662,8.692c0-0.008,0-0.008,0-0.008S397.662,8.684,397.662,8.692z"/>
</g>
<g>
	<path style="fill:#3A3847;" d="M425.485,487.777H86.281c-21.326,0-37.397-15.063-38.225-35.827
		c-0.164-2.569-0.016-5.311,0.445-8.293l25.355-168.845c3.647-23.677,26.121-42.918,50.087-42.918h263.878
		c23.966,0,46.439,19.241,50.087,42.895l25.355,168.892c0.46,2.959,0.608,5.7,0.437,8.363
		C462.882,472.713,446.811,487.777,425.485,487.777z M123.944,239.89c-20.187,0-39.107,16.204-42.184,36.116l-25.356,168.86
		c-0.375,2.421-0.492,4.592-0.359,6.677c0.648,16.398,13.361,28.237,30.236,28.237h339.203c16.876,0,29.589-11.839,30.229-28.144
		c0.141-2.179,0.023-4.35-0.352-6.747l-25.355-168.906c-3.076-19.889-21.997-36.093-42.184-36.093H123.944z"/>
	<path style="fill:#3A3847;" d="M425.485,511.766H86.281c-21.279,0-37.389-15.056-38.303-35.812
		c-0.094-2.202,1.617-4.069,3.827-4.171c2.171-0.124,4.061,1.617,4.17,3.827c0.71,16.312,13.462,28.159,30.306,28.159h339.203
		c16.845,0,29.597-11.847,30.307-28.159c0.102-2.21,1.914-3.943,4.17-3.827c2.21,0.102,3.92,1.969,3.826,4.171
		C462.874,496.71,446.764,511.766,425.485,511.766z"/>
	<path style="fill:#3A3847;" d="M135.938,343.842c-8.964,0-15.992-5.271-15.992-11.994s7.028-11.994,15.992-11.994
		c8.965,0,15.993,5.271,15.993,11.994S144.903,343.842,135.938,343.842z M135.938,327.85c-4.81,0-7.996,2.405-7.996,3.998
		c0,1.594,3.186,3.998,7.996,3.998c4.811,0,7.997-2.404,7.997-3.998C143.935,330.255,140.749,327.85,135.938,327.85z"/>
	<path style="fill:#3A3847;" d="M155.929,375.828c-8.965,0-15.993-5.271-15.993-11.995s7.028-11.994,15.993-11.994
		s15.993,5.271,15.993,11.994S164.894,375.828,155.929,375.828z M155.929,359.835c-4.811,0-7.996,2.405-7.996,3.998
		s3.186,3.998,7.996,3.998s7.996-2.405,7.996-3.998S160.74,359.835,155.929,359.835z"/>
	<path style="fill:#3A3847;" d="M195.911,375.828c-8.965,0-15.992-5.271-15.992-11.995s7.027-11.994,15.992-11.994
		s15.993,5.271,15.993,11.994S204.876,375.828,195.911,375.828z M195.911,359.835c-4.81,0-7.996,2.405-7.996,3.998
		s3.186,3.998,7.996,3.998c4.811,0,7.997-2.405,7.997-3.998S200.721,359.835,195.911,359.835z"/>
	<path style="fill:#3A3847;" d="M235.893,375.828c-8.965,0-15.993-5.271-15.993-11.995s7.028-11.994,15.993-11.994
		c8.964,0,15.993,5.271,15.993,11.994S244.857,375.828,235.893,375.828z M235.893,359.835c-4.81,0-7.997,2.405-7.997,3.998
		s3.187,3.998,7.997,3.998s7.997-2.405,7.997-3.998S240.703,359.835,235.893,359.835z"/>
	<path style="fill:#3A3847;" d="M275.874,375.828c-8.965,0-15.993-5.271-15.993-11.995s7.028-11.994,15.993-11.994
		c8.964,0,15.992,5.271,15.992,11.994S284.838,375.828,275.874,375.828z M275.874,359.835c-4.811,0-7.997,2.405-7.997,3.998
		s3.187,3.998,7.997,3.998s7.996-2.405,7.996-3.998S280.684,359.835,275.874,359.835z"/>
	<path style="fill:#3A3847;" d="M315.856,375.828c-8.965,0-15.992-5.271-15.992-11.995s7.027-11.994,15.992-11.994
		s15.992,5.271,15.992,11.994S324.821,375.828,315.856,375.828z M315.856,359.835c-4.811,0-7.996,2.405-7.996,3.998
		s3.186,3.998,7.996,3.998s7.996-2.405,7.996-3.998S320.666,359.835,315.856,359.835z"/>
	<path style="fill:#3A3847;" d="M355.837,375.828c-8.964,0-15.992-5.271-15.992-11.995s7.028-11.994,15.992-11.994
		c8.965,0,15.993,5.271,15.993,11.994S364.802,375.828,355.837,375.828z M355.837,359.835c-4.81,0-7.996,2.405-7.996,3.998
		s3.187,3.998,7.996,3.998c4.811,0,7.997-2.405,7.997-3.998S360.648,359.835,355.837,359.835z"/>
	<path style="fill:#3A3847;" d="M395.819,375.828c-8.964,0-15.992-5.271-15.992-11.995s7.028-11.994,15.992-11.994
		c8.965,0,15.993,5.271,15.993,11.994S404.783,375.828,395.819,375.828z M395.819,359.835c-4.81,0-7.996,2.405-7.996,3.998
		s3.187,3.998,7.996,3.998c4.811,0,7.997-2.405,7.997-3.998S400.629,359.835,395.819,359.835z"/>
	<path style="fill:#3A3847;" d="M115.947,375.828c-8.964,0-15.993-5.271-15.993-11.995s7.028-11.994,15.993-11.994
		s15.993,5.271,15.993,11.994S124.912,375.828,115.947,375.828z M115.947,359.835c-4.81,0-7.997,2.405-7.997,3.998
		s3.187,3.998,7.997,3.998s7.997-2.405,7.997-3.998S120.758,359.835,115.947,359.835z"/>
	<path style="fill:#3A3847;" d="M175.92,343.842c-8.964,0-15.993-5.271-15.993-11.994s7.028-11.994,15.993-11.994
		s15.993,5.271,15.993,11.994S184.884,343.842,175.92,343.842z M175.92,327.85c-4.81,0-7.997,2.405-7.997,3.998
		c0,1.594,3.187,3.998,7.997,3.998s7.997-2.404,7.997-3.998C183.917,330.255,180.73,327.85,175.92,327.85z"/>
	<path style="fill:#3A3847;" d="M215.902,343.842c-8.965,0-15.993-5.271-15.993-11.994s7.028-11.994,15.993-11.994
		c8.964,0,15.992,5.271,15.992,11.994S224.866,343.842,215.902,343.842z M215.902,327.85c-4.811,0-7.997,2.405-7.997,3.998
		c0,1.594,3.186,3.998,7.997,3.998c4.81,0,7.996-2.404,7.996-3.998C223.898,330.255,220.712,327.85,215.902,327.85z"/>
	<path style="fill:#3A3847;" d="M255.883,343.842c-8.964,0-15.992-5.271-15.992-11.994s7.028-11.994,15.992-11.994
		c8.965,0,15.992,5.271,15.992,11.994S264.848,343.842,255.883,343.842z M255.883,327.85c-4.81,0-7.996,2.405-7.996,3.998
		c0,1.594,3.186,3.998,7.996,3.998c4.811,0,7.996-2.404,7.996-3.998C263.879,330.255,260.694,327.85,255.883,327.85z"/>
	<path style="fill:#3A3847;" d="M295.864,343.842c-8.964,0-15.992-5.271-15.992-11.994s7.028-11.994,15.992-11.994
		c8.965,0,15.993,5.271,15.993,11.994S304.829,343.842,295.864,343.842z M295.864,327.85c-4.81,0-7.996,2.405-7.996,3.998
		c0,1.594,3.187,3.998,7.996,3.998c4.811,0,7.997-2.404,7.997-3.998C303.862,330.255,300.675,327.85,295.864,327.85z"/>
	<path style="fill:#3A3847;" d="M335.846,343.842c-8.964,0-15.992-5.271-15.992-11.994s7.028-11.994,15.992-11.994
		c8.965,0,15.993,5.271,15.993,11.994S344.811,343.842,335.846,343.842z M335.846,327.85c-4.81,0-7.996,2.405-7.996,3.998
		c0,1.594,3.187,3.998,7.996,3.998c4.811,0,7.997-2.404,7.997-3.998C343.843,330.255,340.656,327.85,335.846,327.85z"/>
	<path style="fill:#3A3847;" d="M375.828,343.842c-8.965,0-15.993-5.271-15.993-11.994s7.028-11.994,15.993-11.994
		s15.992,5.271,15.992,11.994S384.793,343.842,375.828,343.842z M375.828,327.85c-4.811,0-7.996,2.405-7.996,3.998
		c0,1.594,3.186,3.998,7.996,3.998s7.996-2.404,7.996-3.998C383.824,330.255,380.639,327.85,375.828,327.85z"/>
	<path style="fill:#3A3847;" d="M135.938,407.813c-8.964,0-15.992-5.271-15.992-11.994s7.028-11.994,15.992-11.994
		c8.965,0,15.993,5.271,15.993,11.994S144.903,407.813,135.938,407.813z M135.938,391.821c-4.81,0-7.996,2.405-7.996,3.998
		c0,1.594,3.186,3.998,7.996,3.998c4.811,0,7.997-2.404,7.997-3.998C143.935,394.226,140.749,391.821,135.938,391.821z"/>
	<path style="fill:#3A3847;" d="M175.92,407.813c-8.964,0-15.993-5.271-15.993-11.994s7.028-11.994,15.993-11.994
		s15.993,5.271,15.993,11.994S184.884,407.813,175.92,407.813z M175.92,391.821c-4.81,0-7.997,2.405-7.997,3.998
		c0,1.594,3.187,3.998,7.997,3.998s7.997-2.404,7.997-3.998C183.917,394.226,180.73,391.821,175.92,391.821z"/>
	<path style="fill:#3A3847;" d="M215.902,407.813c-8.965,0-15.993-5.271-15.993-11.994s7.028-11.994,15.993-11.994
		c8.964,0,15.992,5.271,15.992,11.994S224.866,407.813,215.902,407.813z M215.902,391.821c-4.811,0-7.997,2.405-7.997,3.998
		c0,1.594,3.186,3.998,7.997,3.998c4.81,0,7.996-2.404,7.996-3.998C223.898,394.226,220.712,391.821,215.902,391.821z"/>
	<path style="fill:#3A3847;" d="M255.883,407.813c-8.964,0-15.992-5.271-15.992-11.994s7.028-11.994,15.992-11.994
		c8.965,0,15.992,5.271,15.992,11.994S264.848,407.813,255.883,407.813z M255.883,391.821c-4.81,0-7.996,2.405-7.996,3.998
		c0,1.594,3.186,3.998,7.996,3.998c4.811,0,7.996-2.404,7.996-3.998C263.879,394.226,260.694,391.821,255.883,391.821z"/>
	<path style="fill:#3A3847;" d="M295.864,407.813c-8.964,0-15.992-5.271-15.992-11.994s7.028-11.994,15.992-11.994
		c8.965,0,15.993,5.271,15.993,11.994S304.829,407.813,295.864,407.813z M295.864,391.821c-4.81,0-7.996,2.405-7.996,3.998
		c0,1.594,3.187,3.998,7.996,3.998c4.811,0,7.997-2.404,7.997-3.998C303.862,394.226,300.675,391.821,295.864,391.821z"/>
	<path style="fill:#3A3847;" d="M335.846,407.813c-8.964,0-15.992-5.271-15.992-11.994s7.028-11.994,15.992-11.994
		c8.965,0,15.993,5.271,15.993,11.994S344.811,407.813,335.846,407.813z M335.846,391.821c-4.81,0-7.996,2.405-7.996,3.998
		c0,1.594,3.187,3.998,7.996,3.998c4.811,0,7.997-2.404,7.997-3.998C343.843,394.226,340.656,391.821,335.846,391.821z"/>
	<path style="fill:#3A3847;" d="M375.828,407.813c-8.965,0-15.993-5.271-15.993-11.994s7.028-11.994,15.993-11.994
		s15.992,5.271,15.992,11.994S384.793,407.813,375.828,407.813z M375.828,391.821c-4.811,0-7.996,2.405-7.996,3.998
		c0,1.594,3.186,3.998,7.996,3.998s7.996-2.404,7.996-3.998C383.824,394.226,380.639,391.821,375.828,391.821z"/>
	<path style="fill:#3A3847;" d="M335.846,439.799H175.92c-8.964,0-15.993-5.271-15.993-11.995s7.028-11.994,15.993-11.994h159.926
		c8.965,0,15.993,5.271,15.993,11.994S344.811,439.799,335.846,439.799z M175.92,423.806c-4.81,0-7.997,2.405-7.997,3.998
		s3.187,3.998,7.997,3.998h159.926c4.811,0,7.997-2.405,7.997-3.998s-3.187-3.998-7.997-3.998H175.92z"/>
	<path style="fill:#3A3847;" d="M255.883,303.861c-28.237,0-52.39-6.771-75.754-13.321c-19.569-5.482-38.053-10.668-56.185-10.668
		c-35.109,0-41.364,6.326-41.427,6.389c-1.116,1.913-3.436,2.342-5.333,1.265c-1.905-1.108-2.429-3.748-1.32-5.661
		c1.359-2.343,8.847-9.988,48.08-9.988c19.233,0,38.232,5.326,58.348,10.964c22.833,6.403,46.448,13.025,73.591,13.025
		c27.089,0,48.446-6.606,69.102-12.994c18.288-5.653,35.554-10.995,54.842-10.995c40.677,0,54.201,8.262,54.756,8.613
		c1.867,1.188,2.421,3.654,1.242,5.521c-1.188,1.866-3.639,2.396-5.49,1.257c-0.312-0.18-13.018-7.396-50.508-7.396
		c-18.078,0-34.789,5.17-52.484,10.637C307.11,296.77,284.175,303.861,255.883,303.861z"/>
	<path style="fill:#3A3847;" d="M427.805,471.783H83.962c-2.209,0-3.998-1.787-3.998-3.998c0-2.209,1.789-3.998,3.998-3.998h343.843
		c2.209,0,3.998,1.789,3.998,3.998C431.803,469.996,430.014,471.783,427.805,471.783z"/>
	<path style="fill:#3A3847;" d="M83.962,239.89c-6.84,0-11.995-8.598-11.995-19.99c0-11.394,5.154-19.991,11.995-19.991h31.985
		c2.21,0,3.999,1.788,3.999,3.998s-1.789,3.998-3.999,3.998H83.962c-0.789,0-3.998,3.858-3.998,11.995s3.209,11.994,3.998,11.994
		c2.21,0,3.999,1.788,3.999,3.998S86.172,239.89,83.962,239.89z"/>
	<path style="fill:#3A3847;" d="M427.805,239.89c-2.211,0-3.999-1.788-3.999-3.998s1.788-3.998,3.999-3.998
		c0.788,0,3.998-3.857,3.998-11.994c0-8.137-3.21-11.995-3.998-11.995h-23.989c-2.21,0-3.999-1.788-3.999-3.998
		s1.789-3.998,3.999-3.998h23.989c6.84,0,11.994,8.598,11.994,19.991C439.799,231.292,434.645,239.89,427.805,239.89z"/>
	<path style="fill:#3A3847;" d="M75.966,223.898h-3.998c-2.21,0-3.998-1.789-3.998-3.998c0-2.21,1.788-3.999,3.998-3.999h3.998
		c2.21,0,3.999,1.789,3.999,3.999C79.964,222.109,78.175,223.898,75.966,223.898z"/>
	<path style="fill:#3A3847;" d="M439.799,223.898h-3.998c-2.21,0-3.998-1.789-3.998-3.998c0-2.21,1.788-3.999,3.998-3.999h3.998
		c2.21,0,3.998,1.789,3.998,3.999C443.797,222.109,442.009,223.898,439.799,223.898z"/>
	<path style="fill:#3A3847;" d="M283.87,243.888h-55.974c-2.21,0-3.998-1.789-3.998-3.999s1.788-3.998,3.998-3.998h55.974
		c2.21,0,3.998,1.788,3.998,3.998S286.08,243.888,283.87,243.888z"/>
	<path style="fill:#3A3847;" d="M131.94,223.898c-2.21,0-3.998-1.789-3.998-3.998V27.987c0-2.209,1.788-3.998,3.998-3.998
		s3.998,1.789,3.998,3.998V219.9C135.938,222.109,134.15,223.898,131.94,223.898z"/>
	<path style="fill:#3A3847;" d="M435.801,39.982c-2.21,0-3.998-1.788-3.998-3.998v-7.997c0-2.209,1.788-3.998,3.998-3.998
		s3.998,1.789,3.998,3.998v7.997C439.799,38.194,438.011,39.982,435.801,39.982z"/>
	<path style="fill:#3A3847;" d="M387.822,223.898c-2.21,0-3.998-1.789-3.998-3.998V27.987c0-2.209,1.788-3.998,3.998-3.998
		s3.998,1.789,3.998,3.998V219.9C391.821,222.109,390.032,223.898,387.822,223.898z"/>
	<path style="fill:#3A3847;" d="M411.812,7.996H155.929c-2.21,0-3.998-1.788-3.998-3.998S153.719,0,155.929,0h255.882
		c2.21,0,3.998,1.788,3.998,3.998S414.022,7.996,411.812,7.996z"/>
	<path style="fill:#3A3847;" d="M435.801,39.982h-39.982c-2.209,0-3.998-1.788-3.998-3.998s1.789-3.998,3.998-3.998h39.982
		c2.21,0,3.998,1.788,3.998,3.998S438.011,39.982,435.801,39.982z"/>
	<path style="fill:#3A3847;" d="M131.94,31.986c-2.21,0-3.998-1.789-3.998-3.999C127.942,12.557,140.499,0,155.929,0
		c2.21,0,3.998,1.788,3.998,3.998s-1.788,3.998-3.998,3.998c-11.026,0-19.991,8.965-19.991,19.991
		C135.938,30.197,134.15,31.986,131.94,31.986z"/>
	<path style="fill:#3A3847;" d="M387.822,31.986c-2.21,0-3.998-1.789-3.998-3.999C383.824,12.557,396.382,0,411.811,0
		c2.21,0,3.998,1.788,3.998,3.998s-1.788,3.998-3.998,3.998c-11.026,0-19.991,8.965-19.991,19.991
		C391.821,30.197,390.032,31.986,387.822,31.986z"/>
	<path style="fill:#3A3847;" d="M435.801,31.986c-2.21,0-3.998-1.789-3.998-3.999c0-11.026-8.965-19.991-19.991-19.991
		c-2.21,0-3.998-1.788-3.998-3.998S409.603,0,411.813,0c15.431,0,27.987,12.557,27.987,27.987
		C439.799,30.197,438.011,31.986,435.801,31.986z"/>
	<path style="fill:#3A3847;" d="M347.841,55.974H171.922c-2.21,0-3.999-1.789-3.999-3.999c0-2.209,1.789-3.998,3.999-3.998h175.919
		c2.21,0,3.998,1.789,3.998,3.998C351.839,54.186,350.051,55.974,347.841,55.974z"/>
	<path style="fill:#3A3847;" d="M347.841,87.96H171.922c-2.21,0-3.999-1.789-3.999-3.999c0-2.209,1.789-3.998,3.999-3.998h175.919
		c2.21,0,3.998,1.789,3.998,3.998C351.839,86.171,350.051,87.96,347.841,87.96z"/>
	<path style="fill:#3A3847;" d="M347.841,119.945H171.922c-2.21,0-3.999-1.789-3.999-3.999c0-2.209,1.789-3.998,3.999-3.998h175.919
		c2.21,0,3.998,1.789,3.998,3.998C351.839,118.156,350.051,119.945,347.841,119.945z"/>
	<path style="fill:#3A3847;" d="M347.841,151.93H171.922c-2.21,0-3.999-1.789-3.999-3.998c0-2.21,1.789-3.999,3.999-3.999h175.919
		c2.21,0,3.998,1.789,3.998,3.999C351.839,150.142,350.051,151.93,347.841,151.93z"/>
	<path style="fill:#3A3847;" d="M259.881,183.916h-87.959c-2.21,0-3.999-1.789-3.999-3.998c0-2.21,1.789-3.999,3.999-3.999h87.959
		c2.21,0,3.998,1.789,3.998,3.999C263.879,182.127,262.091,183.916,259.881,183.916z"/>
	<path style="fill:#3A3847;" d="M459.789,479.78c-2.209,0-3.998-1.788-3.998-3.998v-23.989c0-2.21,1.789-3.998,3.998-3.998
		c2.211,0,3.998,1.788,3.998,3.998v23.989C463.787,477.992,462,479.78,459.789,479.78z"/>
	<path style="fill:#3A3847;" d="M51.977,479.78c-2.209,0-3.998-1.788-3.998-3.998v-23.989c0-2.21,1.789-3.998,3.998-3.998
		c2.21,0,3.999,1.788,3.999,3.998v23.989C55.975,477.992,54.187,479.78,51.977,479.78z"/>
</g>
<g>
</g>
<g>
</g>
<g>
</g>
<g>
</g>
<g>
</g>
<g>
</g>
<g>
</g>
<g>
</g>
<g>
</g>
<g>
</g>
<g>
</g>
<g>
</g>
<g>
</g>
<g>
</g>
<g>
</g>
</svg>
